<mxfile host="Electron" modified="2023-11-17T19:00:42.320Z" agent="Mozilla/5.0 (Windows NT 10.0; Win64; x64) AppleWebKit/537.36 (KHTML, like Gecko) draw.io/22.0.3 Chrome/114.0.5735.289 Electron/25.8.4 Safari/537.36" etag="9KM_bn99eq_q74c_6k_N" version="22.0.3" type="device" pages="3">
  <diagram id="C5RBs43oDa-KdzZeNtuy" name="class_diagram">
    <mxGraphModel dx="1276" dy="1783" grid="1" gridSize="10" guides="1" tooltips="1" connect="1" arrows="1" fold="1" page="1" pageScale="1" pageWidth="827" pageHeight="1169" math="0" shadow="0">
      <root>
        <mxCell id="WIyWlLk6GJQsqaUBKTNV-0" />
        <mxCell id="WIyWlLk6GJQsqaUBKTNV-1" parent="WIyWlLk6GJQsqaUBKTNV-0" />
        <mxCell id="ql8s9O4BfAqlzzYeSNHr-0" value="" style="html=1;whiteSpace=wrap;" parent="WIyWlLk6GJQsqaUBKTNV-1" vertex="1">
          <mxGeometry x="60" y="-430" width="1290" height="950" as="geometry" />
        </mxCell>
        <mxCell id="jYPO3VI367kmdUoxZ0iE-0" value="" style="rounded=0;whiteSpace=wrap;html=1;" parent="WIyWlLk6GJQsqaUBKTNV-1" vertex="1">
          <mxGeometry x="70" y="-1100" width="730" height="630" as="geometry" />
        </mxCell>
        <mxCell id="OGq1cjGKQ7Xz-tsoZoZo-18" value="&lt;p style=&quot;margin:0px;margin-top:4px;text-align:center;&quot;&gt;&lt;i&gt;&amp;lt;&amp;lt;Interface&amp;gt;&amp;gt;&lt;/i&gt;&lt;br&gt;&lt;b&gt;JpaRepository&lt;/b&gt;&lt;/p&gt;&lt;hr size=&quot;1&quot;&gt;&lt;p style=&quot;margin:0px;margin-left:4px;&quot;&gt;&lt;br&gt;&lt;/p&gt;&lt;hr size=&quot;1&quot;&gt;&lt;p style=&quot;margin:0px;margin-left:4px;&quot;&gt;&lt;br&gt;&lt;/p&gt;" style="verticalAlign=top;align=left;overflow=fill;fontSize=12;fontFamily=Helvetica;html=1;whiteSpace=wrap;" parent="WIyWlLk6GJQsqaUBKTNV-1" vertex="1">
          <mxGeometry x="220" y="310" width="140" height="89" as="geometry" />
        </mxCell>
        <mxCell id="OGq1cjGKQ7Xz-tsoZoZo-21" value="&lt;p style=&quot;margin:0px;margin-top:4px;text-align:center;&quot;&gt;&lt;b&gt;LoginController&lt;/b&gt;&lt;/p&gt;&lt;hr size=&quot;1&quot;&gt;&lt;p style=&quot;margin:0px;margin-left:4px;&quot;&gt;- authenticationManager&lt;span style=&quot;background-color: initial;&quot;&gt;:&amp;nbsp;&lt;/span&gt;AuthenticationManager&lt;/p&gt;&lt;p style=&quot;margin:0px;margin-left:4px;&quot;&gt;- jwtTokenProvider: JwtTokenProvider&amp;nbsp;&lt;/p&gt;&lt;hr size=&quot;1&quot;&gt;&lt;p style=&quot;margin:0px;margin-left:4px;&quot;&gt;+&amp;nbsp;signIn&lt;span style=&quot;background-color: initial;&quot;&gt;(SignInRequest: signIn):&amp;nbsp;&lt;/span&gt;ResponseEntity&amp;lt;?&amp;gt;&lt;/p&gt;" style="verticalAlign=top;align=left;overflow=fill;fontSize=12;fontFamily=Helvetica;html=1;whiteSpace=wrap;" parent="WIyWlLk6GJQsqaUBKTNV-1" vertex="1">
          <mxGeometry x="930" y="-130" width="270" height="110" as="geometry" />
        </mxCell>
        <mxCell id="OGq1cjGKQ7Xz-tsoZoZo-25" value="&lt;p style=&quot;margin:0px;margin-top:4px;text-align:center;&quot;&gt;&lt;b&gt;SignInRequest&lt;/b&gt;&lt;/p&gt;&lt;hr size=&quot;1&quot;&gt;&lt;p style=&quot;margin:0px;margin-left:4px;&quot;&gt;- usserName: String&lt;/p&gt;&lt;p style=&quot;margin:0px;margin-left:4px;&quot;&gt;- password: String&lt;/p&gt;&lt;hr size=&quot;1&quot;&gt;&lt;p style=&quot;margin:0px;margin-left:4px;&quot;&gt;+ getter()/setter()&lt;/p&gt;" style="verticalAlign=top;align=left;overflow=fill;fontSize=12;fontFamily=Helvetica;html=1;whiteSpace=wrap;" parent="WIyWlLk6GJQsqaUBKTNV-1" vertex="1">
          <mxGeometry x="850" y="160" width="160" height="90" as="geometry" />
        </mxCell>
        <mxCell id="OGq1cjGKQ7Xz-tsoZoZo-29" value="&lt;p style=&quot;margin:0px;margin-top:4px;text-align:center;&quot;&gt;&lt;i&gt;&amp;lt;&amp;lt;Interface&amp;gt;&amp;gt;&lt;/i&gt;&lt;br&gt;&lt;b&gt;IUserService&lt;/b&gt;&lt;/p&gt;&lt;hr size=&quot;1&quot;&gt;&lt;p style=&quot;margin:0px;margin-left:4px;&quot;&gt;&lt;br&gt;&lt;/p&gt;&lt;hr size=&quot;1&quot;&gt;&lt;p style=&quot;margin:0px;margin-left:4px;&quot;&gt;+findByUserName(String: userName): Users&lt;/p&gt;" style="verticalAlign=top;align=left;overflow=fill;fontSize=12;fontFamily=Helvetica;html=1;whiteSpace=wrap;" parent="WIyWlLk6GJQsqaUBKTNV-1" vertex="1">
          <mxGeometry x="220" y="-220" width="170" height="100" as="geometry" />
        </mxCell>
        <mxCell id="OGq1cjGKQ7Xz-tsoZoZo-30" value="&lt;p style=&quot;margin:0px;margin-top:4px;text-align:center;&quot;&gt;&lt;b style=&quot;border-color: var(--border-color);&quot;&gt;UserServiceImpl&lt;/b&gt;&lt;br&gt;&lt;/p&gt;&lt;hr size=&quot;1&quot;&gt;&lt;p style=&quot;margin:0px;margin-left:4px;&quot;&gt;-&amp;nbsp;iUserRepository&lt;span style=&quot;background-color: initial;&quot;&gt;: I&lt;/span&gt;UserRepository&lt;/p&gt;&lt;hr size=&quot;1&quot;&gt;&lt;p style=&quot;margin:0px;margin-left:4px;&quot;&gt;+&amp;nbsp;findByUserName(&lt;/p&gt;String: userName&lt;span style=&quot;background-color: initial;&quot;&gt;):&amp;nbsp;&lt;/span&gt;&lt;span style=&quot;background-color: initial;&quot;&gt;Users&lt;/span&gt;" style="verticalAlign=top;align=left;overflow=fill;fontSize=12;fontFamily=Helvetica;html=1;whiteSpace=wrap;" parent="WIyWlLk6GJQsqaUBKTNV-1" vertex="1">
          <mxGeometry x="220" y="-40" width="200" height="90" as="geometry" />
        </mxCell>
        <mxCell id="OGq1cjGKQ7Xz-tsoZoZo-31" value="" style="endArrow=block;dashed=1;endFill=0;endSize=12;html=1;rounded=0;entryX=0.5;entryY=1;entryDx=0;entryDy=0;exitX=0.399;exitY=-0.046;exitDx=0;exitDy=0;exitPerimeter=0;" parent="WIyWlLk6GJQsqaUBKTNV-1" source="OGq1cjGKQ7Xz-tsoZoZo-30" target="OGq1cjGKQ7Xz-tsoZoZo-29" edge="1">
          <mxGeometry width="160" relative="1" as="geometry">
            <mxPoint x="560" y="10" as="sourcePoint" />
            <mxPoint x="720" y="10" as="targetPoint" />
          </mxGeometry>
        </mxCell>
        <mxCell id="OGq1cjGKQ7Xz-tsoZoZo-32" value="realizes" style="edgeLabel;html=1;align=center;verticalAlign=middle;resizable=0;points=[];" parent="OGq1cjGKQ7Xz-tsoZoZo-31" vertex="1" connectable="0">
          <mxGeometry x="0.0985" y="-3" relative="1" as="geometry">
            <mxPoint as="offset" />
          </mxGeometry>
        </mxCell>
        <mxCell id="OGq1cjGKQ7Xz-tsoZoZo-33" value="&lt;p style=&quot;margin:0px;margin-top:4px;text-align:center;&quot;&gt;&lt;i&gt;&amp;lt;&amp;lt;Interface&amp;gt;&amp;gt;&lt;/i&gt;&lt;br&gt;&lt;b&gt;IUserRepository&lt;/b&gt;&lt;/p&gt;&lt;hr size=&quot;1&quot;&gt;&lt;p style=&quot;margin:0px;margin-left:4px;&quot;&gt;&lt;br&gt;&lt;/p&gt;&lt;hr size=&quot;1&quot;&gt;&lt;p style=&quot;margin:0px;margin-left:4px;&quot;&gt;+&amp;nbsp;findByUserName(&lt;/p&gt;String: userName&lt;span style=&quot;background-color: initial;&quot;&gt;):&amp;nbsp;Users&lt;/span&gt;" style="verticalAlign=top;align=left;overflow=fill;fontSize=12;fontFamily=Helvetica;html=1;whiteSpace=wrap;" parent="WIyWlLk6GJQsqaUBKTNV-1" vertex="1">
          <mxGeometry x="220" y="130" width="170" height="120" as="geometry" />
        </mxCell>
        <mxCell id="OGq1cjGKQ7Xz-tsoZoZo-34" value="" style="endArrow=diamondThin;endFill=1;endSize=24;html=1;rounded=0;exitX=0.554;exitY=-0.033;exitDx=0;exitDy=0;entryX=0.465;entryY=1;entryDx=0;entryDy=0;entryPerimeter=0;exitPerimeter=0;" parent="WIyWlLk6GJQsqaUBKTNV-1" source="OGq1cjGKQ7Xz-tsoZoZo-33" target="OGq1cjGKQ7Xz-tsoZoZo-30" edge="1">
          <mxGeometry width="160" relative="1" as="geometry">
            <mxPoint x="560" y="10" as="sourcePoint" />
            <mxPoint x="720" y="10" as="targetPoint" />
          </mxGeometry>
        </mxCell>
        <mxCell id="OGq1cjGKQ7Xz-tsoZoZo-35" value="owns" style="edgeLabel;html=1;align=center;verticalAlign=middle;resizable=0;points=[];" parent="OGq1cjGKQ7Xz-tsoZoZo-34" vertex="1" connectable="0">
          <mxGeometry x="-0.1032" y="-3" relative="1" as="geometry">
            <mxPoint as="offset" />
          </mxGeometry>
        </mxCell>
        <mxCell id="OGq1cjGKQ7Xz-tsoZoZo-36" value="is" style="endArrow=block;endSize=16;endFill=0;html=1;rounded=0;exitX=0.5;exitY=1;exitDx=0;exitDy=0;entryX=0.5;entryY=0;entryDx=0;entryDy=0;" parent="WIyWlLk6GJQsqaUBKTNV-1" source="OGq1cjGKQ7Xz-tsoZoZo-33" target="OGq1cjGKQ7Xz-tsoZoZo-18" edge="1">
          <mxGeometry width="160" relative="1" as="geometry">
            <mxPoint x="500" y="-10" as="sourcePoint" />
            <mxPoint x="660" y="-10" as="targetPoint" />
          </mxGeometry>
        </mxCell>
        <mxCell id="OGq1cjGKQ7Xz-tsoZoZo-37" value="&lt;p style=&quot;margin:0px;margin-top:4px;text-align:center;&quot;&gt;&lt;b&gt;JwtAuthenticationFilter&lt;/b&gt;&lt;/p&gt;&lt;hr size=&quot;1&quot;&gt;&lt;p style=&quot;margin:0px;margin-left:4px;&quot;&gt;-&amp;nbsp;jwtTokenProvider&lt;span style=&quot;background-color: initial;&quot;&gt;: J&lt;/span&gt;wtTokenProvider&lt;/p&gt;&lt;p style=&quot;margin:0px;margin-left:4px;&quot;&gt;- userPrincipleService:&amp;nbsp;UserPrincipleService&lt;/p&gt;&lt;hr size=&quot;1&quot;&gt;&lt;p style=&quot;margin:0px;margin-left:4px;&quot;&gt;- getJwtFromRequest&lt;span style=&quot;background-color: initial;&quot;&gt;(HttpServletRequest: http):&amp;nbsp;&lt;/span&gt;String&lt;/p&gt;&lt;p style=&quot;margin:0px;margin-left:4px;&quot;&gt;#&amp;nbsp;doFilterInternal(): void&lt;/p&gt;&lt;p style=&quot;margin:0px;margin-left:4px;&quot;&gt;&lt;br&gt;&lt;/p&gt;" style="verticalAlign=top;align=left;overflow=fill;fontSize=12;fontFamily=Helvetica;html=1;whiteSpace=wrap;" parent="WIyWlLk6GJQsqaUBKTNV-1" vertex="1">
          <mxGeometry x="805" y="-310" width="255" height="120" as="geometry" />
        </mxCell>
        <mxCell id="OGq1cjGKQ7Xz-tsoZoZo-38" value="&lt;p style=&quot;margin:0px;margin-top:4px;text-align:center;&quot;&gt;J&lt;span style=&quot;text-align: left;&quot;&gt;wtTokenProvider&lt;/span&gt;&lt;br&gt;&lt;/p&gt;&lt;hr size=&quot;1&quot;&gt;&lt;p style=&quot;margin:0px;margin-left:4px;&quot;&gt;- JWT_SECRET&lt;span style=&quot;background-color: initial;&quot;&gt;: String&lt;/span&gt;&lt;/p&gt;&lt;p style=&quot;margin:0px;margin-left:4px;&quot;&gt;-&amp;nbsp;JWT_EXPIRATION: int&lt;/p&gt;&lt;hr size=&quot;1&quot;&gt;&lt;p style=&quot;margin:0px;margin-left:4px;&quot;&gt;+&amp;nbsp;genarateToken&lt;span style=&quot;background-color: initial;&quot;&gt;(UserPrincicple: usePrincicple):&amp;nbsp;&lt;/span&gt;String&lt;/p&gt;" style="verticalAlign=top;align=left;overflow=fill;fontSize=12;fontFamily=Helvetica;html=1;whiteSpace=wrap;" parent="WIyWlLk6GJQsqaUBKTNV-1" vertex="1">
          <mxGeometry x="534" y="-140" width="206" height="110" as="geometry" />
        </mxCell>
        <mxCell id="OGq1cjGKQ7Xz-tsoZoZo-39" value="" style="endArrow=diamondThin;endFill=1;endSize=24;html=1;rounded=0;entryX=0;entryY=0.553;entryDx=0;entryDy=0;exitX=0.999;exitY=0.461;exitDx=0;exitDy=0;exitPerimeter=0;entryPerimeter=0;" parent="WIyWlLk6GJQsqaUBKTNV-1" source="OGq1cjGKQ7Xz-tsoZoZo-38" target="OGq1cjGKQ7Xz-tsoZoZo-37" edge="1">
          <mxGeometry width="160" relative="1" as="geometry">
            <mxPoint x="865" y="90" as="sourcePoint" />
            <mxPoint x="830" y="20" as="targetPoint" />
          </mxGeometry>
        </mxCell>
        <mxCell id="OGq1cjGKQ7Xz-tsoZoZo-40" value="owns" style="edgeLabel;html=1;align=center;verticalAlign=middle;resizable=0;points=[];" parent="OGq1cjGKQ7Xz-tsoZoZo-39" vertex="1" connectable="0">
          <mxGeometry x="-0.1032" y="-3" relative="1" as="geometry">
            <mxPoint x="-29" y="-10" as="offset" />
          </mxGeometry>
        </mxCell>
        <mxCell id="OGq1cjGKQ7Xz-tsoZoZo-41" value="&lt;p style=&quot;margin:0px;margin-top:4px;text-align:center;&quot;&gt;UserPrincipleService&lt;/p&gt;&lt;hr size=&quot;1&quot;&gt;&lt;p style=&quot;margin:0px;margin-left:4px;&quot;&gt;- iUserService: IUserService&lt;/p&gt;&lt;hr size=&quot;1&quot;&gt;&lt;p style=&quot;margin:0px;margin-left:4px;&quot;&gt;+&amp;nbsp;loadUserByUsername&lt;span style=&quot;background-color: initial;&quot;&gt;(String: userName):&amp;nbsp;&lt;/span&gt;UserDetails&lt;/p&gt;" style="verticalAlign=top;align=left;overflow=fill;fontSize=12;fontFamily=Helvetica;html=1;whiteSpace=wrap;" parent="WIyWlLk6GJQsqaUBKTNV-1" vertex="1">
          <mxGeometry x="500" y="-330" width="220" height="90" as="geometry" />
        </mxCell>
        <mxCell id="OGq1cjGKQ7Xz-tsoZoZo-42" value="" style="endArrow=diamondThin;endFill=1;endSize=24;html=1;rounded=0;entryX=0;entryY=0.5;entryDx=0;entryDy=0;exitX=1;exitY=0.556;exitDx=0;exitDy=0;exitPerimeter=0;" parent="WIyWlLk6GJQsqaUBKTNV-1" source="OGq1cjGKQ7Xz-tsoZoZo-41" target="OGq1cjGKQ7Xz-tsoZoZo-37" edge="1">
          <mxGeometry width="160" relative="1" as="geometry">
            <mxPoint x="722" y="-278" as="sourcePoint" />
            <mxPoint x="820" y="-76" as="targetPoint" />
          </mxGeometry>
        </mxCell>
        <mxCell id="OGq1cjGKQ7Xz-tsoZoZo-43" value="owns" style="edgeLabel;html=1;align=center;verticalAlign=middle;resizable=0;points=[];" parent="OGq1cjGKQ7Xz-tsoZoZo-42" vertex="1" connectable="0">
          <mxGeometry x="-0.1032" y="-3" relative="1" as="geometry">
            <mxPoint as="offset" />
          </mxGeometry>
        </mxCell>
        <mxCell id="OGq1cjGKQ7Xz-tsoZoZo-44" value="" style="endArrow=diamondThin;endFill=1;endSize=24;html=1;rounded=0;exitX=1;exitY=0;exitDx=0;exitDy=0;entryX=-0.007;entryY=0.436;entryDx=0;entryDy=0;entryPerimeter=0;" parent="WIyWlLk6GJQsqaUBKTNV-1" source="OGq1cjGKQ7Xz-tsoZoZo-29" target="OGq1cjGKQ7Xz-tsoZoZo-41" edge="1">
          <mxGeometry width="160" relative="1" as="geometry">
            <mxPoint x="660" y="190" as="sourcePoint" />
            <mxPoint x="747" y="120" as="targetPoint" />
          </mxGeometry>
        </mxCell>
        <mxCell id="OGq1cjGKQ7Xz-tsoZoZo-45" value="owns" style="edgeLabel;html=1;align=center;verticalAlign=middle;resizable=0;points=[];" parent="OGq1cjGKQ7Xz-tsoZoZo-44" vertex="1" connectable="0">
          <mxGeometry x="-0.1032" y="-3" relative="1" as="geometry">
            <mxPoint as="offset" />
          </mxGeometry>
        </mxCell>
        <mxCell id="OGq1cjGKQ7Xz-tsoZoZo-47" value="&lt;p style=&quot;margin:0px;margin-top:4px;text-align:center;&quot;&gt;&lt;b&gt;UserPrincicple&lt;/b&gt;&lt;/p&gt;&lt;hr size=&quot;1&quot;&gt;&lt;p style=&quot;margin:0px;margin-left:4px;&quot;&gt;- userId: Integer&lt;/p&gt;&lt;p style=&quot;margin:0px;margin-left:4px;&quot;&gt;-&amp;nbsp;userName: String&lt;/p&gt;&lt;p style=&quot;margin:0px;margin-left:4px;&quot;&gt;- password: String&lt;/p&gt;&lt;p style=&quot;margin:0px;margin-left:4px;&quot;&gt;- roles: Collection&amp;lt;? extend GrantedAuthorization&amp;gt;&lt;/p&gt;&lt;hr size=&quot;1&quot;&gt;&lt;p style=&quot;margin:0px;margin-left:4px;&quot;&gt;+&amp;nbsp;getAuthorities&lt;span style=&quot;background-color: initial;&quot;&gt;(): Collection&amp;lt;? extend GrantedAuthorization&amp;gt;&lt;/span&gt;&lt;/p&gt;&lt;p style=&quot;margin:0px;margin-left:4px;&quot;&gt;&lt;span style=&quot;background-color: initial;&quot;&gt;+&amp;nbsp;&lt;/span&gt;mapUserToUserPrinciple():&amp;nbsp;UserPrinciple&lt;/p&gt;&lt;p style=&quot;margin:0px;margin-left:4px;&quot;&gt;+getPassword(): String&lt;/p&gt;&lt;p style=&quot;margin:0px;margin-left:4px;&quot;&gt;+&amp;nbsp;getUsername: String&lt;/p&gt;&lt;p style=&quot;margin:0px;margin-left:4px;&quot;&gt;+&amp;nbsp;isAccountNonExpired:&amp;nbsp;boolean&lt;/p&gt;&lt;p style=&quot;margin:0px;margin-left:4px;&quot;&gt;+&amp;nbsp;isAccountNonLocked: boolean&lt;/p&gt;&lt;p style=&quot;border-color: var(--border-color); margin: 0px 0px 0px 4px;&quot;&gt;+&amp;nbsp;isCredentialsNonExpired&lt;span style=&quot;background-color: initial;&quot;&gt;:&amp;nbsp;boolean&lt;/span&gt;&lt;/p&gt;&lt;p style=&quot;border-color: var(--border-color); margin: 0px 0px 0px 4px;&quot;&gt;+&amp;nbsp;isEnabled&lt;span style=&quot;background-color: initial;&quot;&gt;: boolean&lt;/span&gt;&lt;/p&gt;" style="verticalAlign=top;align=left;overflow=fill;fontSize=12;fontFamily=Helvetica;html=1;whiteSpace=wrap;" parent="WIyWlLk6GJQsqaUBKTNV-1" vertex="1">
          <mxGeometry x="450" y="90" width="340" height="220" as="geometry" />
        </mxCell>
        <mxCell id="OGq1cjGKQ7Xz-tsoZoZo-48" value="uses" style="html=1;verticalAlign=bottom;endArrow=open;dashed=1;endSize=8;curved=0;rounded=0;entryX=0.5;entryY=0;entryDx=0;entryDy=0;" parent="WIyWlLk6GJQsqaUBKTNV-1" source="OGq1cjGKQ7Xz-tsoZoZo-38" target="OGq1cjGKQ7Xz-tsoZoZo-47" edge="1">
          <mxGeometry relative="1" as="geometry">
            <mxPoint x="1000" y="190" as="sourcePoint" />
            <mxPoint x="880" y="210" as="targetPoint" />
          </mxGeometry>
        </mxCell>
        <mxCell id="OGq1cjGKQ7Xz-tsoZoZo-49" value="uses" style="html=1;verticalAlign=bottom;endArrow=open;dashed=1;endSize=8;curved=0;rounded=0;entryX=0.5;entryY=0;entryDx=0;entryDy=0;exitX=0.477;exitY=1.029;exitDx=0;exitDy=0;exitPerimeter=0;" parent="WIyWlLk6GJQsqaUBKTNV-1" source="OGq1cjGKQ7Xz-tsoZoZo-21" target="OGq1cjGKQ7Xz-tsoZoZo-25" edge="1">
          <mxGeometry relative="1" as="geometry">
            <mxPoint x="1360" y="88" as="sourcePoint" />
            <mxPoint x="1190" y="30" as="targetPoint" />
          </mxGeometry>
        </mxCell>
        <mxCell id="OGq1cjGKQ7Xz-tsoZoZo-50" value="&lt;p style=&quot;margin:0px;margin-top:4px;text-align:center;&quot;&gt;&lt;i&gt;&amp;lt;&amp;lt;Interface&amp;gt;&amp;gt;&lt;/i&gt;&lt;br&gt;&lt;b&gt;AuthenticationManager&lt;/b&gt;&lt;/p&gt;&lt;hr size=&quot;1&quot;&gt;&lt;p style=&quot;margin:0px;margin-left:4px;&quot;&gt;&lt;br&gt;&lt;/p&gt;&lt;hr size=&quot;1&quot;&gt;&lt;p style=&quot;margin:0px;margin-left:4px;&quot;&gt;+authenticate&lt;span style=&quot;background-color: initial;&quot;&gt;():&amp;nbsp;&lt;/span&gt;Authentication&lt;/p&gt;" style="verticalAlign=top;align=left;overflow=fill;fontSize=12;fontFamily=Helvetica;html=1;whiteSpace=wrap;" parent="WIyWlLk6GJQsqaUBKTNV-1" vertex="1">
          <mxGeometry x="1080" y="170" width="170" height="90" as="geometry" />
        </mxCell>
        <mxCell id="OGq1cjGKQ7Xz-tsoZoZo-51" value="" style="endArrow=diamondThin;endFill=1;endSize=24;html=1;rounded=0;entryX=0.5;entryY=1;entryDx=0;entryDy=0;" parent="WIyWlLk6GJQsqaUBKTNV-1" source="OGq1cjGKQ7Xz-tsoZoZo-50" target="OGq1cjGKQ7Xz-tsoZoZo-21" edge="1">
          <mxGeometry width="160" relative="1" as="geometry">
            <mxPoint x="1413" y="150" as="sourcePoint" />
            <mxPoint x="1547" y="70" as="targetPoint" />
          </mxGeometry>
        </mxCell>
        <mxCell id="OGq1cjGKQ7Xz-tsoZoZo-52" value="owns" style="edgeLabel;html=1;align=center;verticalAlign=middle;resizable=0;points=[];" parent="OGq1cjGKQ7Xz-tsoZoZo-51" vertex="1" connectable="0">
          <mxGeometry x="-0.1032" y="-3" relative="1" as="geometry">
            <mxPoint as="offset" />
          </mxGeometry>
        </mxCell>
        <mxCell id="OGq1cjGKQ7Xz-tsoZoZo-53" value="" style="endArrow=diamondThin;endFill=1;endSize=24;html=1;rounded=0;entryX=0.003;entryY=0.422;entryDx=0;entryDy=0;exitX=1;exitY=0.5;exitDx=0;exitDy=0;entryPerimeter=0;" parent="WIyWlLk6GJQsqaUBKTNV-1" source="OGq1cjGKQ7Xz-tsoZoZo-38" target="OGq1cjGKQ7Xz-tsoZoZo-21" edge="1">
          <mxGeometry width="160" relative="1" as="geometry">
            <mxPoint x="740" y="-95" as="sourcePoint" />
            <mxPoint x="1400" as="targetPoint" />
          </mxGeometry>
        </mxCell>
        <mxCell id="OGq1cjGKQ7Xz-tsoZoZo-54" value="owns" style="edgeLabel;html=1;align=center;verticalAlign=middle;resizable=0;points=[];" parent="OGq1cjGKQ7Xz-tsoZoZo-53" vertex="1" connectable="0">
          <mxGeometry x="-0.1032" y="-3" relative="1" as="geometry">
            <mxPoint as="offset" />
          </mxGeometry>
        </mxCell>
        <mxCell id="4vN9LezOLMFgxgBN6kdw-0" value="&lt;p style=&quot;margin:0px;margin-top:4px;text-align:center;&quot;&gt;&lt;b&gt;ChangeInformationController&lt;/b&gt;&lt;/p&gt;&lt;hr size=&quot;1&quot;&gt;&lt;p style=&quot;margin:0px;margin-left:4px;&quot;&gt;- iUserService&lt;span style=&quot;background-color: initial;&quot;&gt;: IUserService&lt;/span&gt;&lt;/p&gt;&lt;p style=&quot;margin:0px;margin-left:4px;&quot;&gt;&lt;span style=&quot;background-color: initial;&quot;&gt;- passwordEncoder: PasswordEncoder&lt;/span&gt;&lt;/p&gt;&lt;hr size=&quot;1&quot;&gt;&lt;p style=&quot;margin:0px;margin-left:4px;&quot;&gt;+ changePassword (ChangePassword: ChangePassword&lt;span style=&quot;background-color: initial;&quot;&gt;):&amp;nbsp;&lt;/span&gt;&lt;span style=&quot;background-color: initial;&quot;&gt;ResponseEntity&amp;lt;?&amp;gt;&lt;/span&gt;&lt;/p&gt;&lt;p style=&quot;margin:0px;margin-left:4px;&quot;&gt;&lt;br&gt;&lt;/p&gt;" style="verticalAlign=top;align=left;overflow=fill;fontSize=12;fontFamily=Helvetica;html=1;whiteSpace=wrap;" parent="WIyWlLk6GJQsqaUBKTNV-1" vertex="1">
          <mxGeometry x="430" y="-1070" width="270" height="180" as="geometry" />
        </mxCell>
        <mxCell id="4vN9LezOLMFgxgBN6kdw-1" value="&lt;p style=&quot;margin:0px;margin-top:4px;text-align:center;&quot;&gt;&lt;i&gt;&amp;lt;&amp;lt;Interface&amp;gt;&amp;gt;&lt;/i&gt;&lt;br&gt;&lt;b&gt;JpaRepository&lt;/b&gt;&lt;/p&gt;&lt;hr size=&quot;1&quot;&gt;&lt;p style=&quot;margin:0px;margin-left:4px;&quot;&gt;&lt;br&gt;&lt;/p&gt;&lt;hr size=&quot;1&quot;&gt;&lt;p style=&quot;margin:0px;margin-left:4px;&quot;&gt;&lt;br&gt;&lt;/p&gt;" style="verticalAlign=top;align=left;overflow=fill;fontSize=12;fontFamily=Helvetica;html=1;whiteSpace=wrap;" parent="WIyWlLk6GJQsqaUBKTNV-1" vertex="1">
          <mxGeometry x="570" y="-614.5" width="140" height="89" as="geometry" />
        </mxCell>
        <mxCell id="4vN9LezOLMFgxgBN6kdw-2" value="&lt;p style=&quot;margin:0px;margin-top:4px;text-align:center;&quot;&gt;&lt;i&gt;&amp;lt;&amp;lt;Interface&amp;gt;&amp;gt;&lt;/i&gt;&lt;br&gt;&lt;b&gt;IUserService&lt;/b&gt;&lt;/p&gt;&lt;hr size=&quot;1&quot;&gt;&lt;p style=&quot;margin:0px;margin-left:4px;&quot;&gt;&lt;br&gt;&lt;/p&gt;&lt;hr size=&quot;1&quot;&gt;&lt;p style=&quot;margin:0px;margin-left:4px;&quot;&gt;+findByUserName(String: userName): Users&lt;/p&gt;" style="verticalAlign=top;align=left;overflow=fill;fontSize=12;fontFamily=Helvetica;html=1;whiteSpace=wrap;" parent="WIyWlLk6GJQsqaUBKTNV-1" vertex="1">
          <mxGeometry x="140" y="-950" width="170" height="100" as="geometry" />
        </mxCell>
        <mxCell id="4vN9LezOLMFgxgBN6kdw-3" value="&lt;p style=&quot;margin:0px;margin-top:4px;text-align:center;&quot;&gt;&lt;b style=&quot;border-color: var(--border-color);&quot;&gt;UserServiceImpl&lt;/b&gt;&lt;br&gt;&lt;/p&gt;&lt;hr size=&quot;1&quot;&gt;&lt;p style=&quot;margin:0px;margin-left:4px;&quot;&gt;-&amp;nbsp;iUserRepository&lt;span style=&quot;background-color: initial;&quot;&gt;: I&lt;/span&gt;UserRepository&lt;/p&gt;&lt;hr size=&quot;1&quot;&gt;&lt;p style=&quot;margin:0px;margin-left:4px;&quot;&gt;+&amp;nbsp;findByUserName(&lt;/p&gt;String: userName&lt;span style=&quot;background-color: initial;&quot;&gt;):&amp;nbsp;&lt;/span&gt;&lt;span style=&quot;background-color: initial;&quot;&gt;Users&lt;/span&gt;" style="verticalAlign=top;align=left;overflow=fill;fontSize=12;fontFamily=Helvetica;html=1;whiteSpace=wrap;" parent="WIyWlLk6GJQsqaUBKTNV-1" vertex="1">
          <mxGeometry x="140" y="-770" width="200" height="90" as="geometry" />
        </mxCell>
        <mxCell id="4vN9LezOLMFgxgBN6kdw-4" value="" style="endArrow=block;dashed=1;endFill=0;endSize=12;html=1;rounded=0;entryX=0.5;entryY=1;entryDx=0;entryDy=0;exitX=0.399;exitY=-0.046;exitDx=0;exitDy=0;exitPerimeter=0;" parent="WIyWlLk6GJQsqaUBKTNV-1" source="4vN9LezOLMFgxgBN6kdw-3" target="4vN9LezOLMFgxgBN6kdw-2" edge="1">
          <mxGeometry width="160" relative="1" as="geometry">
            <mxPoint x="480" y="-720" as="sourcePoint" />
            <mxPoint x="640" y="-720" as="targetPoint" />
          </mxGeometry>
        </mxCell>
        <mxCell id="4vN9LezOLMFgxgBN6kdw-5" value="realizes" style="edgeLabel;html=1;align=center;verticalAlign=middle;resizable=0;points=[];" parent="4vN9LezOLMFgxgBN6kdw-4" vertex="1" connectable="0">
          <mxGeometry x="0.0985" y="-3" relative="1" as="geometry">
            <mxPoint as="offset" />
          </mxGeometry>
        </mxCell>
        <mxCell id="4vN9LezOLMFgxgBN6kdw-6" value="&lt;p style=&quot;margin:0px;margin-top:4px;text-align:center;&quot;&gt;&lt;i&gt;&amp;lt;&amp;lt;Interface&amp;gt;&amp;gt;&lt;/i&gt;&lt;br&gt;&lt;b&gt;IUserRepository&lt;/b&gt;&lt;/p&gt;&lt;hr size=&quot;1&quot;&gt;&lt;p style=&quot;margin:0px;margin-left:4px;&quot;&gt;&lt;br&gt;&lt;/p&gt;&lt;hr size=&quot;1&quot;&gt;&lt;p style=&quot;margin:0px;margin-left:4px;&quot;&gt;+&amp;nbsp;findByUserName(&lt;/p&gt;String: userName&lt;span style=&quot;background-color: initial;&quot;&gt;):&amp;nbsp;Users&lt;/span&gt;" style="verticalAlign=top;align=left;overflow=fill;fontSize=12;fontFamily=Helvetica;html=1;whiteSpace=wrap;" parent="WIyWlLk6GJQsqaUBKTNV-1" vertex="1">
          <mxGeometry x="260" y="-630" width="170" height="120" as="geometry" />
        </mxCell>
        <mxCell id="4vN9LezOLMFgxgBN6kdw-7" value="" style="endArrow=diamondThin;endFill=1;endSize=24;html=1;rounded=0;exitX=0.554;exitY=-0.033;exitDx=0;exitDy=0;entryX=0.465;entryY=1;entryDx=0;entryDy=0;entryPerimeter=0;exitPerimeter=0;" parent="WIyWlLk6GJQsqaUBKTNV-1" source="4vN9LezOLMFgxgBN6kdw-6" target="4vN9LezOLMFgxgBN6kdw-3" edge="1">
          <mxGeometry width="160" relative="1" as="geometry">
            <mxPoint x="480" y="-720" as="sourcePoint" />
            <mxPoint x="640" y="-720" as="targetPoint" />
          </mxGeometry>
        </mxCell>
        <mxCell id="4vN9LezOLMFgxgBN6kdw-8" value="owns" style="edgeLabel;html=1;align=center;verticalAlign=middle;resizable=0;points=[];" parent="4vN9LezOLMFgxgBN6kdw-7" vertex="1" connectable="0">
          <mxGeometry x="-0.1032" y="-3" relative="1" as="geometry">
            <mxPoint as="offset" />
          </mxGeometry>
        </mxCell>
        <mxCell id="4vN9LezOLMFgxgBN6kdw-9" value="is" style="endArrow=block;endSize=16;endFill=0;html=1;rounded=0;exitX=1;exitY=0.5;exitDx=0;exitDy=0;entryX=0;entryY=0.5;entryDx=0;entryDy=0;" parent="WIyWlLk6GJQsqaUBKTNV-1" source="4vN9LezOLMFgxgBN6kdw-6" target="4vN9LezOLMFgxgBN6kdw-1" edge="1">
          <mxGeometry width="160" relative="1" as="geometry">
            <mxPoint x="420" y="-740" as="sourcePoint" />
            <mxPoint x="580" y="-740" as="targetPoint" />
          </mxGeometry>
        </mxCell>
        <mxCell id="4vN9LezOLMFgxgBN6kdw-10" value="" style="endArrow=diamondThin;endFill=1;endSize=24;html=1;rounded=0;exitX=1;exitY=0.25;exitDx=0;exitDy=0;entryX=0;entryY=0.5;entryDx=0;entryDy=0;" parent="WIyWlLk6GJQsqaUBKTNV-1" source="4vN9LezOLMFgxgBN6kdw-2" target="4vN9LezOLMFgxgBN6kdw-0" edge="1">
          <mxGeometry width="160" relative="1" as="geometry">
            <mxPoint x="310" y="-890" as="sourcePoint" />
            <mxPoint x="418" y="-961" as="targetPoint" />
          </mxGeometry>
        </mxCell>
        <mxCell id="4vN9LezOLMFgxgBN6kdw-11" value="owns" style="edgeLabel;html=1;align=center;verticalAlign=middle;resizable=0;points=[];" parent="4vN9LezOLMFgxgBN6kdw-10" vertex="1" connectable="0">
          <mxGeometry x="-0.1032" y="-3" relative="1" as="geometry">
            <mxPoint as="offset" />
          </mxGeometry>
        </mxCell>
        <mxCell id="4vN9LezOLMFgxgBN6kdw-12" value="uses" style="html=1;verticalAlign=bottom;endArrow=open;dashed=1;endSize=8;curved=0;rounded=0;exitX=0.461;exitY=1.021;exitDx=0;exitDy=0;exitPerimeter=0;entryX=0.545;entryY=-0.032;entryDx=0;entryDy=0;entryPerimeter=0;" parent="WIyWlLk6GJQsqaUBKTNV-1" source="4vN9LezOLMFgxgBN6kdw-0" target="4vN9LezOLMFgxgBN6kdw-13" edge="1">
          <mxGeometry relative="1" as="geometry">
            <mxPoint x="727" y="-960" as="sourcePoint" />
            <mxPoint x="570" y="-850" as="targetPoint" />
          </mxGeometry>
        </mxCell>
        <mxCell id="4vN9LezOLMFgxgBN6kdw-13" value="&lt;p style=&quot;margin:0px;margin-top:4px;text-align:center;&quot;&gt;ChangePassword&lt;/p&gt;&lt;hr size=&quot;1&quot;&gt;&lt;p style=&quot;margin:0px;margin-left:4px;&quot;&gt;-&amp;nbsp;userName&lt;span style=&quot;background-color: initial;&quot;&gt;: String&lt;/span&gt;&lt;/p&gt;&lt;p style=&quot;margin:0px;margin-left:4px;&quot;&gt;-&amp;nbsp;password&lt;span style=&quot;background-color: initial;&quot;&gt;: String&lt;/span&gt;&lt;/p&gt;&lt;p style=&quot;margin:0px;margin-left:4px;&quot;&gt;&lt;span style=&quot;background-color: initial;&quot;&gt;- currenPassword: String&lt;/span&gt;&lt;/p&gt;&lt;p style=&quot;margin:0px;margin-left:4px;&quot;&gt;- confimPassworrd: String&lt;/p&gt;&lt;hr size=&quot;1&quot;&gt;&lt;p style=&quot;margin:0px;margin-left:4px;&quot;&gt;+ getter()/setter()&lt;/p&gt;" style="verticalAlign=top;align=left;overflow=fill;fontSize=12;fontFamily=Helvetica;html=1;whiteSpace=wrap;" parent="WIyWlLk6GJQsqaUBKTNV-1" vertex="1">
          <mxGeometry x="370" y="-790" width="200" height="120" as="geometry" />
        </mxCell>
        <mxCell id="4vN9LezOLMFgxgBN6kdw-14" value="&lt;p style=&quot;margin:0px;margin-top:4px;text-align:center;&quot;&gt;&lt;i&gt;&amp;lt;&amp;lt;Interface&amp;gt;&amp;gt;&lt;/i&gt;&lt;br&gt;PasswordEncoder&lt;br&gt;&lt;/p&gt;&lt;hr size=&quot;1&quot;&gt;&lt;p style=&quot;margin:0px;margin-left:4px;&quot;&gt;&lt;br&gt;&lt;/p&gt;&lt;hr size=&quot;1&quot;&gt;&lt;p style=&quot;margin:0px;margin-left:4px;&quot;&gt;+encode&lt;span style=&quot;background-color: initial;&quot;&gt;(CharSequence rawPassword):&amp;nbsp;&lt;/span&gt;String&lt;/p&gt;" style="verticalAlign=top;align=left;overflow=fill;fontSize=12;fontFamily=Helvetica;html=1;whiteSpace=wrap;" parent="WIyWlLk6GJQsqaUBKTNV-1" vertex="1">
          <mxGeometry x="610" y="-790" width="180" height="110" as="geometry" />
        </mxCell>
        <mxCell id="4vN9LezOLMFgxgBN6kdw-15" value="" style="endArrow=diamondThin;endFill=1;endSize=24;html=1;rounded=0;entryX=0.5;entryY=1;entryDx=0;entryDy=0;" parent="WIyWlLk6GJQsqaUBKTNV-1" source="4vN9LezOLMFgxgBN6kdw-14" target="4vN9LezOLMFgxgBN6kdw-0" edge="1">
          <mxGeometry width="160" relative="1" as="geometry">
            <mxPoint x="1098" y="-760" as="sourcePoint" />
            <mxPoint x="750" y="-930" as="targetPoint" />
          </mxGeometry>
        </mxCell>
        <mxCell id="4vN9LezOLMFgxgBN6kdw-16" value="owns" style="edgeLabel;html=1;align=center;verticalAlign=middle;resizable=0;points=[];" parent="4vN9LezOLMFgxgBN6kdw-15" vertex="1" connectable="0">
          <mxGeometry x="-0.1032" y="-3" relative="1" as="geometry">
            <mxPoint as="offset" />
          </mxGeometry>
        </mxCell>
      </root>
    </mxGraphModel>
  </diagram>
  <diagram id="lOfqRchyNPSI56cXGb2N" name="squence_diagram">
    <mxGraphModel dx="2328" dy="722" grid="1" gridSize="10" guides="1" tooltips="1" connect="1" arrows="1" fold="1" page="1" pageScale="1" pageWidth="827" pageHeight="1169" math="0" shadow="0">
      <root>
        <mxCell id="0" />
        <mxCell id="1" parent="0" />
        <mxCell id="oL-_xspf0wyE7Ma5RtEQ-44" value="" style="rounded=0;whiteSpace=wrap;html=1;" parent="1" vertex="1">
          <mxGeometry x="-760" y="60" width="1220" height="830" as="geometry" />
        </mxCell>
        <mxCell id="oL-_xspf0wyE7Ma5RtEQ-33" value="" style="rounded=0;whiteSpace=wrap;html=1;" parent="1" vertex="1">
          <mxGeometry x="-770" y="990" width="1630" height="830" as="geometry" />
        </mxCell>
        <mxCell id="e0AsV-FHl-M4myUDjuzJ-1" value="User" style="shape=umlActor;verticalLabelPosition=bottom;verticalAlign=top;html=1;outlineConnect=0;" parent="1" vertex="1">
          <mxGeometry x="-650" y="1055" width="30" height="60" as="geometry" />
        </mxCell>
        <mxCell id="e0AsV-FHl-M4myUDjuzJ-2" value="" style="endArrow=none;dashed=1;html=1;rounded=0;" parent="1" edge="1">
          <mxGeometry width="50" height="50" relative="1" as="geometry">
            <mxPoint x="-640" y="1810" as="sourcePoint" />
            <mxPoint x="-640" y="1144" as="targetPoint" />
          </mxGeometry>
        </mxCell>
        <mxCell id="e0AsV-FHl-M4myUDjuzJ-5" value="" style="html=1;points=[[0,0,0,0,5],[0,1,0,0,-5],[1,0,0,0,5],[1,1,0,0,-5]];perimeter=orthogonalPerimeter;outlineConnect=0;targetShapes=umlLifeline;portConstraint=eastwest;newEdgeStyle={&quot;curved&quot;:0,&quot;rounded&quot;:0};" parent="1" vertex="1">
          <mxGeometry x="-490" y="1144" width="10" height="666" as="geometry" />
        </mxCell>
        <mxCell id="e0AsV-FHl-M4myUDjuzJ-6" value="1. Enterr username and &lt;br&gt;password" style="html=1;verticalAlign=bottom;endArrow=block;curved=0;rounded=0;" parent="1" edge="1">
          <mxGeometry width="80" relative="1" as="geometry">
            <mxPoint x="-640" y="1185" as="sourcePoint" />
            <mxPoint x="-490" y="1185" as="targetPoint" />
          </mxGeometry>
        </mxCell>
        <mxCell id="e0AsV-FHl-M4myUDjuzJ-7" value="View" style="rounded=0;whiteSpace=wrap;html=1;" parent="1" vertex="1">
          <mxGeometry x="-525" y="1065" width="80" height="40" as="geometry" />
        </mxCell>
        <mxCell id="e0AsV-FHl-M4myUDjuzJ-8" value="" style="endArrow=none;dashed=1;html=1;rounded=0;entryX=0.5;entryY=1;entryDx=0;entryDy=0;" parent="1" source="e0AsV-FHl-M4myUDjuzJ-5" target="e0AsV-FHl-M4myUDjuzJ-7" edge="1">
          <mxGeometry width="50" height="50" relative="1" as="geometry">
            <mxPoint x="-485.5" y="1156" as="sourcePoint" />
            <mxPoint x="-485.5" y="1105" as="targetPoint" />
          </mxGeometry>
        </mxCell>
        <mxCell id="e0AsV-FHl-M4myUDjuzJ-9" value="2. Click button &quot;Sign in&quot;" style="html=1;verticalAlign=bottom;endArrow=block;curved=0;rounded=0;" parent="1" edge="1">
          <mxGeometry width="80" relative="1" as="geometry">
            <mxPoint x="-640" y="1225" as="sourcePoint" />
            <mxPoint x="-490" y="1225" as="targetPoint" />
          </mxGeometry>
        </mxCell>
        <mxCell id="e0AsV-FHl-M4myUDjuzJ-12" value="" style="html=1;points=[[0,0,0,0,5],[0,1,0,0,-5],[1,0,0,0,5],[1,1,0,0,-5]];perimeter=orthogonalPerimeter;outlineConnect=0;targetShapes=umlLifeline;portConstraint=eastwest;newEdgeStyle={&quot;curved&quot;:0,&quot;rounded&quot;:0};" parent="1" vertex="1">
          <mxGeometry x="-295" y="1225" width="10" height="120" as="geometry" />
        </mxCell>
        <mxCell id="e0AsV-FHl-M4myUDjuzJ-13" value="&lt;pre style=&quot;background-color: rgb(255, 255, 255); color: rgb(8, 8, 8);&quot;&gt;&lt;font style=&quot;font-size: 12px;&quot; face=&quot;Helvetica&quot;&gt;JwtAuthenticationFilter&lt;/font&gt;&lt;/pre&gt;" style="rounded=0;whiteSpace=wrap;html=1;" parent="1" vertex="1">
          <mxGeometry x="-360" y="1065" width="140" height="45" as="geometry" />
        </mxCell>
        <mxCell id="e0AsV-FHl-M4myUDjuzJ-14" value="3. doFilterInternal()" style="html=1;verticalAlign=bottom;endArrow=block;curved=0;rounded=0;entryX=0.5;entryY=0.348;entryDx=0;entryDy=0;entryPerimeter=0;" parent="1" edge="1">
          <mxGeometry width="80" relative="1" as="geometry">
            <mxPoint x="-480" y="1264.9979999999998" as="sourcePoint" />
            <mxPoint x="-290" y="1264.9979999999998" as="targetPoint" />
          </mxGeometry>
        </mxCell>
        <mxCell id="e0AsV-FHl-M4myUDjuzJ-15" value="" style="endArrow=none;dashed=1;html=1;rounded=0;entryX=0.5;entryY=1;entryDx=0;entryDy=0;" parent="1" source="e0AsV-FHl-M4myUDjuzJ-12" target="e0AsV-FHl-M4myUDjuzJ-13" edge="1">
          <mxGeometry width="50" height="50" relative="1" as="geometry">
            <mxPoint x="-445" y="1154" as="sourcePoint" />
            <mxPoint x="-445" y="1115" as="targetPoint" />
          </mxGeometry>
        </mxCell>
        <mxCell id="e0AsV-FHl-M4myUDjuzJ-16" value="" style="html=1;points=[[0,0,0,0,5],[0,1,0,0,-5],[1,0,0,0,5],[1,1,0,0,-5]];perimeter=orthogonalPerimeter;outlineConnect=0;targetShapes=umlLifeline;portConstraint=eastwest;newEdgeStyle={&quot;curved&quot;:0,&quot;rounded&quot;:0};" parent="1" vertex="1">
          <mxGeometry x="-95" y="1270" width="10" height="540" as="geometry" />
        </mxCell>
        <mxCell id="e0AsV-FHl-M4myUDjuzJ-17" value="&lt;pre style=&quot;background-color: rgb(255, 255, 255); color: rgb(8, 8, 8);&quot;&gt;&lt;font style=&quot;font-size: 12px;&quot; face=&quot;Helvetica&quot;&gt;SignInController&lt;/font&gt;&lt;/pre&gt;" style="rounded=0;whiteSpace=wrap;html=1;" parent="1" vertex="1">
          <mxGeometry x="-149.37" y="1065" width="115" height="45" as="geometry" />
        </mxCell>
        <mxCell id="e0AsV-FHl-M4myUDjuzJ-18" value="4. SignIn()" style="html=1;verticalAlign=bottom;endArrow=block;curved=0;rounded=0;" parent="1" edge="1">
          <mxGeometry width="80" relative="1" as="geometry">
            <mxPoint x="-285" y="1305" as="sourcePoint" />
            <mxPoint x="-95" y="1305" as="targetPoint" />
          </mxGeometry>
        </mxCell>
        <mxCell id="e0AsV-FHl-M4myUDjuzJ-19" value="" style="endArrow=none;dashed=1;html=1;rounded=0;entryX=0.5;entryY=1;entryDx=0;entryDy=0;" parent="1" target="e0AsV-FHl-M4myUDjuzJ-17" edge="1">
          <mxGeometry width="50" height="50" relative="1" as="geometry">
            <mxPoint x="-90" y="1265" as="sourcePoint" />
            <mxPoint x="-245" y="1115" as="targetPoint" />
          </mxGeometry>
        </mxCell>
        <mxCell id="e0AsV-FHl-M4myUDjuzJ-20" value="" style="html=1;points=[[0,0,0,0,5],[0,1,0,0,-5],[1,0,0,0,5],[1,1,0,0,-5]];perimeter=orthogonalPerimeter;outlineConnect=0;targetShapes=umlLifeline;portConstraint=eastwest;newEdgeStyle={&quot;curved&quot;:0,&quot;rounded&quot;:0};" parent="1" vertex="1">
          <mxGeometry x="80" y="1305" width="10" height="190" as="geometry" />
        </mxCell>
        <mxCell id="e0AsV-FHl-M4myUDjuzJ-21" value="&lt;pre style=&quot;background-color: rgb(255, 255, 255); color: rgb(8, 8, 8);&quot;&gt;&lt;font style=&quot;font-size: 12px;&quot; face=&quot;Helvetica&quot;&gt;UserPrincipleService&lt;/font&gt;&lt;/pre&gt;" style="rounded=0;whiteSpace=wrap;html=1;" parent="1" vertex="1">
          <mxGeometry x="15" y="1065" width="140" height="45" as="geometry" />
        </mxCell>
        <mxCell id="e0AsV-FHl-M4myUDjuzJ-22" value="5. loadUserByUsername()" style="html=1;verticalAlign=bottom;endArrow=block;curved=0;rounded=0;" parent="1" edge="1">
          <mxGeometry width="80" relative="1" as="geometry">
            <mxPoint x="-85" y="1345" as="sourcePoint" />
            <mxPoint x="80" y="1345" as="targetPoint" />
          </mxGeometry>
        </mxCell>
        <mxCell id="e0AsV-FHl-M4myUDjuzJ-23" value="" style="endArrow=none;dashed=1;html=1;rounded=0;entryX=0.5;entryY=1;entryDx=0;entryDy=0;exitX=0.4;exitY=-0.002;exitDx=0;exitDy=0;exitPerimeter=0;" parent="1" source="e0AsV-FHl-M4myUDjuzJ-20" target="e0AsV-FHl-M4myUDjuzJ-21" edge="1">
          <mxGeometry width="50" height="50" relative="1" as="geometry">
            <mxPoint x="-120" y="1154" as="sourcePoint" />
            <mxPoint x="-120" y="1115" as="targetPoint" />
          </mxGeometry>
        </mxCell>
        <mxCell id="e0AsV-FHl-M4myUDjuzJ-24" value="wrong information" style="shape=umlFrame;whiteSpace=wrap;html=1;pointerEvents=0;width=110;height=40;" parent="1" vertex="1">
          <mxGeometry x="-690" y="1395" width="1420" height="395" as="geometry" />
        </mxCell>
        <mxCell id="e0AsV-FHl-M4myUDjuzJ-28" value="7.2.&amp;nbsp;returns error user &lt;br&gt;not found" style="html=1;verticalAlign=bottom;endArrow=open;dashed=1;endSize=8;curved=0;rounded=0;" parent="1" source="e0AsV-FHl-M4myUDjuzJ-20" edge="1">
          <mxGeometry relative="1" as="geometry">
            <mxPoint x="70" y="1463.9099999999999" as="sourcePoint" />
            <mxPoint x="-85" y="1463.9099999999999" as="targetPoint" />
          </mxGeometry>
        </mxCell>
        <mxCell id="e0AsV-FHl-M4myUDjuzJ-31" value="7.3. returns error user &lt;br&gt;not found" style="html=1;verticalAlign=bottom;endArrow=open;dashed=1;endSize=8;curved=0;rounded=0;" parent="1" edge="1">
          <mxGeometry relative="1" as="geometry">
            <mxPoint x="-95" y="1505" as="sourcePoint" />
            <mxPoint x="-480" y="1505" as="targetPoint" />
            <Array as="points">
              <mxPoint x="-280" y="1505" />
            </Array>
          </mxGeometry>
        </mxCell>
        <mxCell id="e0AsV-FHl-M4myUDjuzJ-32" value="[user not found]" style="text;html=1;align=center;verticalAlign=middle;resizable=0;points=[];autosize=1;strokeColor=none;fillColor=none;" parent="1" vertex="1">
          <mxGeometry x="-680" y="1475" width="110" height="30" as="geometry" />
        </mxCell>
        <mxCell id="e0AsV-FHl-M4myUDjuzJ-33" value="" style="endArrow=none;dashed=1;html=1;rounded=0;" parent="1" edge="1">
          <mxGeometry width="50" height="50" relative="1" as="geometry">
            <mxPoint x="-720" y="1545" as="sourcePoint" />
            <mxPoint x="720" y="1545" as="targetPoint" />
          </mxGeometry>
        </mxCell>
        <mxCell id="e0AsV-FHl-M4myUDjuzJ-34" value="[user found]" style="text;html=1;align=center;verticalAlign=middle;resizable=0;points=[];autosize=1;strokeColor=none;fillColor=none;" parent="1" vertex="1">
          <mxGeometry x="-680" y="1595" width="90" height="30" as="geometry" />
        </mxCell>
        <mxCell id="e0AsV-FHl-M4myUDjuzJ-37" value="" style="html=1;points=[[0,0,0,0,5],[0,1,0,0,-5],[1,0,0,0,5],[1,1,0,0,-5]];perimeter=orthogonalPerimeter;outlineConnect=0;targetShapes=umlLifeline;portConstraint=eastwest;newEdgeStyle={&quot;curved&quot;:0,&quot;rounded&quot;:0};" parent="1" vertex="1">
          <mxGeometry x="440" y="1575" width="10" height="85" as="geometry" />
        </mxCell>
        <mxCell id="e0AsV-FHl-M4myUDjuzJ-38" value="&lt;pre style=&quot;background-color: rgb(255, 255, 255); color: rgb(8, 8, 8);&quot;&gt;&lt;pre style=&quot;&quot;&gt;&lt;font style=&quot;font-size: 12px;&quot; face=&quot;Helvetica&quot;&gt;JwtTokenProvider&lt;/font&gt;&lt;/pre&gt;&lt;/pre&gt;" style="rounded=0;whiteSpace=wrap;html=1;" parent="1" vertex="1">
          <mxGeometry x="370" y="1065" width="150" height="45" as="geometry" />
        </mxCell>
        <mxCell id="e0AsV-FHl-M4myUDjuzJ-39" value="" style="endArrow=none;dashed=1;html=1;rounded=0;entryX=0.5;entryY=1;entryDx=0;entryDy=0;exitX=0.4;exitY=-0.002;exitDx=0;exitDy=0;exitPerimeter=0;" parent="1" source="e0AsV-FHl-M4myUDjuzJ-37" target="e0AsV-FHl-M4myUDjuzJ-38" edge="1">
          <mxGeometry width="50" height="50" relative="1" as="geometry">
            <mxPoint x="240" y="1154" as="sourcePoint" />
            <mxPoint x="240" y="1115" as="targetPoint" />
          </mxGeometry>
        </mxCell>
        <mxCell id="e0AsV-FHl-M4myUDjuzJ-40" value="8. genarateToken()" style="html=1;verticalAlign=bottom;endArrow=block;curved=0;rounded=0;" parent="1" target="e0AsV-FHl-M4myUDjuzJ-37" edge="1">
          <mxGeometry width="80" relative="1" as="geometry">
            <mxPoint x="-80" y="1604" as="sourcePoint" />
            <mxPoint x="572.75" y="1585" as="targetPoint" />
          </mxGeometry>
        </mxCell>
        <mxCell id="e0AsV-FHl-M4myUDjuzJ-41" value="10. return logged in successfully" style="html=1;verticalAlign=bottom;endArrow=open;dashed=1;endSize=8;curved=0;rounded=0;" parent="1" edge="1">
          <mxGeometry x="0.027" relative="1" as="geometry">
            <mxPoint x="-95" y="1760" as="sourcePoint" />
            <mxPoint x="-480" y="1760" as="targetPoint" />
            <mxPoint as="offset" />
          </mxGeometry>
        </mxCell>
        <mxCell id="e0AsV-FHl-M4myUDjuzJ-42" value="" style="html=1;points=[[0,0,0,0,5],[0,1,0,0,-5],[1,0,0,0,5],[1,1,0,0,-5]];perimeter=orthogonalPerimeter;outlineConnect=0;targetShapes=umlLifeline;portConstraint=eastwest;newEdgeStyle={&quot;curved&quot;:0,&quot;rounded&quot;:0};" parent="1" vertex="1">
          <mxGeometry x="650" y="1650" width="10" height="90" as="geometry" />
        </mxCell>
        <mxCell id="e0AsV-FHl-M4myUDjuzJ-43" value="&lt;pre style=&quot;background-color: rgb(255, 255, 255); color: rgb(8, 8, 8);&quot;&gt;&lt;pre style=&quot;&quot;&gt;&lt;font face=&quot;Helvetica&quot; style=&quot;font-size: 12px;&quot;&gt;SecurityContext&lt;/font&gt;&lt;/pre&gt;&lt;/pre&gt;" style="rounded=0;whiteSpace=wrap;html=1;" parent="1" vertex="1">
          <mxGeometry x="570" y="1065" width="170" height="45" as="geometry" />
        </mxCell>
        <mxCell id="e0AsV-FHl-M4myUDjuzJ-44" value="" style="endArrow=none;dashed=1;html=1;rounded=0;entryX=0.5;entryY=1;entryDx=0;entryDy=0;exitX=0.4;exitY=-0.002;exitDx=0;exitDy=0;exitPerimeter=0;" parent="1" source="e0AsV-FHl-M4myUDjuzJ-42" target="e0AsV-FHl-M4myUDjuzJ-43" edge="1">
          <mxGeometry width="50" height="50" relative="1" as="geometry">
            <mxPoint x="450" y="1154" as="sourcePoint" />
            <mxPoint x="450" y="1115" as="targetPoint" />
          </mxGeometry>
        </mxCell>
        <mxCell id="e0AsV-FHl-M4myUDjuzJ-45" value="10.setAuthentication()" style="html=1;verticalAlign=bottom;endArrow=block;curved=0;rounded=0;" parent="1" target="e0AsV-FHl-M4myUDjuzJ-42" edge="1">
          <mxGeometry width="80" relative="1" as="geometry">
            <mxPoint x="-85" y="1675" as="sourcePoint" />
            <mxPoint x="645" y="1675" as="targetPoint" />
          </mxGeometry>
        </mxCell>
        <mxCell id="aUs13BBWgvr6O6e0tRoo-3" value="User" style="shape=umlActor;verticalLabelPosition=bottom;verticalAlign=top;html=1;outlineConnect=0;" parent="1" vertex="1">
          <mxGeometry x="-579.38" y="130" width="30" height="60" as="geometry" />
        </mxCell>
        <mxCell id="aUs13BBWgvr6O6e0tRoo-5" value="" style="html=1;points=[[0,0,0,0,5],[0,1,0,0,-5],[1,0,0,0,5],[1,1,0,0,-5]];perimeter=orthogonalPerimeter;outlineConnect=0;targetShapes=umlLifeline;portConstraint=eastwest;newEdgeStyle={&quot;curved&quot;:0,&quot;rounded&quot;:0};" parent="1" vertex="1">
          <mxGeometry x="-393.76" y="250" width="10" height="540" as="geometry" />
        </mxCell>
        <mxCell id="aUs13BBWgvr6O6e0tRoo-6" value="1.&amp;nbsp;Enter current password ,new &lt;br&gt;password and confim password" style="html=1;verticalAlign=bottom;endArrow=block;curved=0;rounded=0;" parent="1" edge="1">
          <mxGeometry x="0.0051" width="80" relative="1" as="geometry">
            <mxPoint x="-569.38" y="280" as="sourcePoint" />
            <mxPoint x="-393.76" y="280" as="targetPoint" />
            <mxPoint as="offset" />
          </mxGeometry>
        </mxCell>
        <mxCell id="aUs13BBWgvr6O6e0tRoo-7" value="View" style="rounded=0;whiteSpace=wrap;html=1;" parent="1" vertex="1">
          <mxGeometry x="-426.26" y="150" width="75" height="30" as="geometry" />
        </mxCell>
        <mxCell id="aUs13BBWgvr6O6e0tRoo-8" value="" style="endArrow=none;dashed=1;html=1;rounded=0;entryX=0.5;entryY=1;entryDx=0;entryDy=0;" parent="1" source="aUs13BBWgvr6O6e0tRoo-5" target="aUs13BBWgvr6O6e0tRoo-7" edge="1">
          <mxGeometry width="50" height="50" relative="1" as="geometry">
            <mxPoint x="-389.26" y="231" as="sourcePoint" />
            <mxPoint x="-389.26" y="180" as="targetPoint" />
          </mxGeometry>
        </mxCell>
        <mxCell id="aUs13BBWgvr6O6e0tRoo-15" value="" style="html=1;points=[[0,0,0,0,5],[0,1,0,0,-5],[1,0,0,0,5],[1,1,0,0,-5]];perimeter=orthogonalPerimeter;outlineConnect=0;targetShapes=umlLifeline;portConstraint=eastwest;newEdgeStyle={&quot;curved&quot;:0,&quot;rounded&quot;:0};" parent="1" vertex="1">
          <mxGeometry x="-233.76" y="340" width="10" height="400" as="geometry" />
        </mxCell>
        <mxCell id="aUs13BBWgvr6O6e0tRoo-16" value="3. changePassword()" style="html=1;verticalAlign=bottom;endArrow=block;curved=0;rounded=0;exitX=1;exitY=0.305;exitDx=0;exitDy=0;exitPerimeter=0;" parent="1" edge="1">
          <mxGeometry width="80" relative="1" as="geometry">
            <mxPoint x="-383.76" y="360.00499999999965" as="sourcePoint" />
            <mxPoint x="-233.76" y="360.00499999999965" as="targetPoint" />
          </mxGeometry>
        </mxCell>
        <mxCell id="aUs13BBWgvr6O6e0tRoo-17" value="ChangeInfomationController" style="rounded=0;whiteSpace=wrap;html=1;" parent="1" vertex="1">
          <mxGeometry x="-307.51" y="150" width="157.5" height="30" as="geometry" />
        </mxCell>
        <mxCell id="aUs13BBWgvr6O6e0tRoo-18" value="" style="endArrow=none;dashed=1;html=1;rounded=0;entryX=0.5;entryY=1;entryDx=0;entryDy=0;" parent="1" source="aUs13BBWgvr6O6e0tRoo-15" target="aUs13BBWgvr6O6e0tRoo-17" edge="1">
          <mxGeometry width="50" height="50" relative="1" as="geometry">
            <mxPoint x="-229.26" y="231" as="sourcePoint" />
            <mxPoint x="-229.26" y="180" as="targetPoint" />
          </mxGeometry>
        </mxCell>
        <mxCell id="aUs13BBWgvr6O6e0tRoo-20" value="" style="html=1;points=[[0,0,0,0,5],[0,1,0,0,-5],[1,0,0,0,5],[1,1,0,0,-5]];perimeter=orthogonalPerimeter;outlineConnect=0;targetShapes=umlLifeline;portConstraint=eastwest;newEdgeStyle={&quot;curved&quot;:0,&quot;rounded&quot;:0};" parent="1" vertex="1">
          <mxGeometry x="-74.38" y="420" width="10" height="280" as="geometry" />
        </mxCell>
        <mxCell id="aUs13BBWgvr6O6e0tRoo-21" value="5. changePassword()" style="html=1;verticalAlign=bottom;endArrow=block;curved=0;rounded=0;entryX=0.062;entryY=0.412;entryDx=0;entryDy=0;entryPerimeter=0;" parent="1" edge="1">
          <mxGeometry width="80" relative="1" as="geometry">
            <mxPoint x="-223.76" y="450" as="sourcePoint" />
            <mxPoint x="-73.75999999999976" y="450" as="targetPoint" />
          </mxGeometry>
        </mxCell>
        <mxCell id="aUs13BBWgvr6O6e0tRoo-22" value="UsersService" style="rounded=0;whiteSpace=wrap;html=1;" parent="1" vertex="1">
          <mxGeometry x="-128.76" y="150" width="118.75" height="30" as="geometry" />
        </mxCell>
        <mxCell id="aUs13BBWgvr6O6e0tRoo-23" value="" style="endArrow=none;dashed=1;html=1;rounded=0;entryX=0.5;entryY=1;entryDx=0;entryDy=0;" parent="1" source="aUs13BBWgvr6O6e0tRoo-20" target="aUs13BBWgvr6O6e0tRoo-22" edge="1">
          <mxGeometry width="50" height="50" relative="1" as="geometry">
            <mxPoint x="-69.25999999999999" y="231" as="sourcePoint" />
            <mxPoint x="-69.25999999999999" y="180" as="targetPoint" />
          </mxGeometry>
        </mxCell>
        <mxCell id="aUs13BBWgvr6O6e0tRoo-25" value="4.1.&amp;nbsp;returns invalid password" style="html=1;verticalAlign=bottom;endArrow=open;dashed=1;endSize=8;curved=0;rounded=0;exitX=-0.107;exitY=0.633;exitDx=0;exitDy=0;exitPerimeter=0;" parent="1" edge="1">
          <mxGeometry x="0.0072" relative="1" as="geometry">
            <mxPoint x="-230.44999999999982" y="400" as="sourcePoint" />
            <mxPoint x="-379.3800000000001" y="400" as="targetPoint" />
            <mxPoint as="offset" />
          </mxGeometry>
        </mxCell>
        <mxCell id="oL-_xspf0wyE7Ma5RtEQ-1" value="" style="html=1;points=[[0,0,0,0,5],[0,1,0,0,-5],[1,0,0,0,5],[1,1,0,0,-5]];perimeter=orthogonalPerimeter;outlineConnect=0;targetShapes=umlLifeline;portConstraint=eastwest;newEdgeStyle={&quot;curved&quot;:0,&quot;rounded&quot;:0};" parent="1" vertex="1">
          <mxGeometry x="66.24000000000001" y="480" width="10" height="170" as="geometry" />
        </mxCell>
        <mxCell id="oL-_xspf0wyE7Ma5RtEQ-2" value="6. changePassword()" style="html=1;verticalAlign=bottom;endArrow=block;curved=0;rounded=0;" parent="1" edge="1">
          <mxGeometry width="80" relative="1" as="geometry">
            <mxPoint x="-64.37999999999988" y="504" as="sourcePoint" />
            <mxPoint x="66.24000000000001" y="504" as="targetPoint" />
          </mxGeometry>
        </mxCell>
        <mxCell id="oL-_xspf0wyE7Ma5RtEQ-3" value="UsersRepository" style="rounded=0;whiteSpace=wrap;html=1;" parent="1" vertex="1">
          <mxGeometry x="11.870000000000005" y="150" width="118.75" height="30" as="geometry" />
        </mxCell>
        <mxCell id="oL-_xspf0wyE7Ma5RtEQ-4" value="" style="endArrow=none;dashed=1;html=1;rounded=0;entryX=0.5;entryY=1;entryDx=0;entryDy=0;" parent="1" source="oL-_xspf0wyE7Ma5RtEQ-1" target="oL-_xspf0wyE7Ma5RtEQ-3" edge="1">
          <mxGeometry width="50" height="50" relative="1" as="geometry">
            <mxPoint x="71.37000000000012" y="231" as="sourcePoint" />
            <mxPoint x="71.37000000000012" y="180" as="targetPoint" />
          </mxGeometry>
        </mxCell>
        <mxCell id="oL-_xspf0wyE7Ma5RtEQ-5" value="alt validate password" style="shape=umlFrame;whiteSpace=wrap;html=1;width=160;height=30;" parent="1" vertex="1">
          <mxGeometry x="-620" y="372.5" width="850" height="405" as="geometry" />
        </mxCell>
        <mxCell id="oL-_xspf0wyE7Ma5RtEQ-7" value="[valid password]" style="text;html=1;align=center;verticalAlign=middle;resizable=0;points=[];autosize=1;strokeColor=none;fillColor=none;" parent="1" vertex="1">
          <mxGeometry x="-614.38" y="550" width="110" height="30" as="geometry" />
        </mxCell>
        <mxCell id="oL-_xspf0wyE7Ma5RtEQ-8" value="" style="html=1;points=[[0,0,0,0,5],[0,1,0,0,-5],[1,0,0,0,5],[1,1,0,0,-5]];perimeter=orthogonalPerimeter;outlineConnect=0;targetShapes=umlLifeline;portConstraint=eastwest;newEdgeStyle={&quot;curved&quot;:0,&quot;rounded&quot;:0};" parent="1" vertex="1">
          <mxGeometry x="201.25" y="530" width="10" height="90" as="geometry" />
        </mxCell>
        <mxCell id="oL-_xspf0wyE7Ma5RtEQ-9" value="7. executeUpdate()" style="html=1;verticalAlign=bottom;endArrow=block;curved=0;rounded=0;exitX=0.999;exitY=0.638;exitDx=0;exitDy=0;exitPerimeter=0;" parent="1" edge="1">
          <mxGeometry width="80" relative="1" as="geometry">
            <mxPoint x="76.23000000000047" y="554.5" as="sourcePoint" />
            <mxPoint x="201.24000000000024" y="554.5" as="targetPoint" />
          </mxGeometry>
        </mxCell>
        <mxCell id="oL-_xspf0wyE7Ma5RtEQ-10" value="Database" style="rounded=0;whiteSpace=wrap;html=1;" parent="1" vertex="1">
          <mxGeometry x="146.87000000000012" y="150" width="118.75" height="30" as="geometry" />
        </mxCell>
        <mxCell id="oL-_xspf0wyE7Ma5RtEQ-11" value="" style="endArrow=none;dashed=1;html=1;rounded=0;entryX=0.5;entryY=1;entryDx=0;entryDy=0;" parent="1" source="oL-_xspf0wyE7Ma5RtEQ-8" target="oL-_xspf0wyE7Ma5RtEQ-10" edge="1">
          <mxGeometry width="50" height="50" relative="1" as="geometry">
            <mxPoint x="206.37000000000012" y="231" as="sourcePoint" />
            <mxPoint x="206.37000000000012" y="180" as="targetPoint" />
          </mxGeometry>
        </mxCell>
        <mxCell id="oL-_xspf0wyE7Ma5RtEQ-12" value="8.&amp;nbsp;returns result" style="html=1;verticalAlign=bottom;endArrow=open;dashed=1;endSize=8;curved=0;rounded=0;" parent="1" edge="1">
          <mxGeometry relative="1" as="geometry">
            <mxPoint x="206.24" y="590" as="sourcePoint" />
            <mxPoint x="76.24000000000001" y="590" as="targetPoint" />
          </mxGeometry>
        </mxCell>
        <mxCell id="oL-_xspf0wyE7Ma5RtEQ-14" value="10.&amp;nbsp;returns result" style="html=1;verticalAlign=bottom;endArrow=open;dashed=1;endSize=8;curved=0;rounded=0;" parent="1" edge="1">
          <mxGeometry relative="1" as="geometry">
            <mxPoint x="-70.75999999999999" y="680" as="sourcePoint" />
            <mxPoint x="-219.76" y="680" as="targetPoint" />
          </mxGeometry>
        </mxCell>
        <mxCell id="oL-_xspf0wyE7Ma5RtEQ-15" value="11.&amp;nbsp;returns result" style="html=1;verticalAlign=bottom;endArrow=open;dashed=1;endSize=8;curved=0;rounded=0;" parent="1" edge="1">
          <mxGeometry relative="1" as="geometry">
            <mxPoint x="-234.76" y="720" as="sourcePoint" />
            <mxPoint x="-383.76" y="720" as="targetPoint" />
          </mxGeometry>
        </mxCell>
        <mxCell id="oL-_xspf0wyE7Ma5RtEQ-16" value="2. Click button &quot;Update&quot;" style="html=1;verticalAlign=bottom;endArrow=block;curved=0;rounded=0;" parent="1" edge="1">
          <mxGeometry width="80" relative="1" as="geometry">
            <mxPoint x="-569.38" y="320" as="sourcePoint" />
            <mxPoint x="-393.76" y="320" as="targetPoint" />
          </mxGeometry>
        </mxCell>
        <mxCell id="oL-_xspf0wyE7Ma5RtEQ-19" value="9.&amp;nbsp;returns result" style="html=1;verticalAlign=bottom;endArrow=open;dashed=1;endSize=8;curved=0;rounded=0;entryX=1.117;entryY=0.788;entryDx=0;entryDy=0;entryPerimeter=0;" parent="1" edge="1">
          <mxGeometry relative="1" as="geometry">
            <mxPoint x="61.100000000000136" y="630" as="sourcePoint" />
            <mxPoint x="-68.62000000000023" y="630.0000000000002" as="targetPoint" />
          </mxGeometry>
        </mxCell>
        <mxCell id="oL-_xspf0wyE7Ma5RtEQ-20" value="12. display mesage update" style="html=1;verticalAlign=bottom;endArrow=open;dashed=1;endSize=8;curved=0;rounded=0;" parent="1" edge="1">
          <mxGeometry relative="1" as="geometry">
            <mxPoint x="-393.76" y="760" as="sourcePoint" />
            <mxPoint x="-569.38" y="760" as="targetPoint" />
          </mxGeometry>
        </mxCell>
        <mxCell id="aUs13BBWgvr6O6e0tRoo-26" value="[invalid password]" style="text;html=1;align=center;verticalAlign=middle;resizable=0;points=[];autosize=1;strokeColor=none;fillColor=none;" parent="1" vertex="1">
          <mxGeometry x="-614.38" y="460" width="120" height="30" as="geometry" />
        </mxCell>
        <mxCell id="oL-_xspf0wyE7Ma5RtEQ-22" value="" style="html=1;points=[[0,0,0,0,5],[0,1,0,0,-5],[1,0,0,0,5],[1,1,0,0,-5]];perimeter=orthogonalPerimeter;outlineConnect=0;targetShapes=umlLifeline;portConstraint=eastwest;newEdgeStyle={&quot;curved&quot;:0,&quot;rounded&quot;:0};" parent="1" vertex="1">
          <mxGeometry x="254.38" y="1345" width="10" height="120" as="geometry" />
        </mxCell>
        <mxCell id="oL-_xspf0wyE7Ma5RtEQ-23" value="6. executeQuery()" style="html=1;verticalAlign=bottom;endArrow=block;curved=0;rounded=0;" parent="1" edge="1">
          <mxGeometry width="80" relative="1" as="geometry">
            <mxPoint x="90" y="1385" as="sourcePoint" />
            <mxPoint x="255.01000000000022" y="1385" as="targetPoint" />
          </mxGeometry>
        </mxCell>
        <mxCell id="oL-_xspf0wyE7Ma5RtEQ-24" value="Database" style="rounded=0;whiteSpace=wrap;html=1;" parent="1" vertex="1">
          <mxGeometry x="200" y="1065" width="129.38" height="45" as="geometry" />
        </mxCell>
        <mxCell id="oL-_xspf0wyE7Ma5RtEQ-25" value="" style="endArrow=none;dashed=1;html=1;rounded=0;entryX=0.5;entryY=1;entryDx=0;entryDy=0;" parent="1" source="oL-_xspf0wyE7Ma5RtEQ-22" target="oL-_xspf0wyE7Ma5RtEQ-24" edge="1">
          <mxGeometry width="50" height="50" relative="1" as="geometry">
            <mxPoint x="259.4999999999999" y="1156" as="sourcePoint" />
            <mxPoint x="259.4999999999999" y="1105" as="targetPoint" />
          </mxGeometry>
        </mxCell>
        <mxCell id="oL-_xspf0wyE7Ma5RtEQ-27" value="7.1.&amp;nbsp;return&amp;nbsp; null" style="html=1;verticalAlign=bottom;endArrow=open;dashed=1;endSize=8;curved=0;rounded=0;" parent="1" target="e0AsV-FHl-M4myUDjuzJ-20" edge="1">
          <mxGeometry relative="1" as="geometry">
            <mxPoint x="254.38" y="1425" as="sourcePoint" />
            <mxPoint x="99.38" y="1425" as="targetPoint" />
          </mxGeometry>
        </mxCell>
        <mxCell id="oL-_xspf0wyE7Ma5RtEQ-45" value="" style="endArrow=none;dashed=1;html=1;dashPattern=1 3;strokeWidth=2;rounded=0;" parent="1" edge="1">
          <mxGeometry width="50" height="50" relative="1" as="geometry">
            <mxPoint x="-569.38" y="220" as="sourcePoint" />
            <mxPoint x="-569.38" y="790" as="targetPoint" />
          </mxGeometry>
        </mxCell>
        <mxCell id="azRQjy0AGDGfgMm692T0-3" value="9. return token" style="html=1;verticalAlign=bottom;endArrow=open;dashed=1;endSize=8;curved=0;rounded=0;" parent="1" source="e0AsV-FHl-M4myUDjuzJ-37" target="e0AsV-FHl-M4myUDjuzJ-16" edge="1">
          <mxGeometry relative="1" as="geometry">
            <mxPoint x="261.87" y="1625" as="sourcePoint" />
            <mxPoint x="112.87" y="1625" as="targetPoint" />
            <Array as="points">
              <mxPoint x="380" y="1640" />
            </Array>
          </mxGeometry>
        </mxCell>
        <mxCell id="azRQjy0AGDGfgMm692T0-5" value="9. return authentocation" style="html=1;verticalAlign=bottom;endArrow=open;dashed=1;endSize=8;curved=0;rounded=0;" parent="1" edge="1">
          <mxGeometry relative="1" as="geometry">
            <mxPoint x="650" y="1720" as="sourcePoint" />
            <mxPoint x="-84.99999999999955" y="1720" as="targetPoint" />
            <Array as="points">
              <mxPoint x="401.25" y="1720" />
            </Array>
          </mxGeometry>
        </mxCell>
      </root>
    </mxGraphModel>
  </diagram>
  <diagram id="DwEMruvN_XHSOK0raxlh" name="use_case">
    <mxGraphModel dx="1276" dy="1783" grid="1" gridSize="10" guides="1" tooltips="1" connect="1" arrows="1" fold="1" page="1" pageScale="1" pageWidth="827" pageHeight="1169" math="0" shadow="0">
      <root>
        <mxCell id="0" />
        <mxCell id="1" parent="0" />
        <mxCell id="6Es8qznvhVIHVmigXPKy-2" value="" style="rounded=0;whiteSpace=wrap;html=1;" parent="1" vertex="1">
          <mxGeometry y="-890" width="590" height="250" as="geometry" />
        </mxCell>
        <mxCell id="6Es8qznvhVIHVmigXPKy-1" value="" style="rounded=0;whiteSpace=wrap;html=1;" parent="1" vertex="1">
          <mxGeometry y="-1150" width="590" height="250" as="geometry" />
        </mxCell>
        <mxCell id="egj4rplgfE7cPBK7OeJP-1" value="Admin/Student/Teacher" style="shape=umlActor;verticalLabelPosition=bottom;verticalAlign=top;html=1;outlineConnect=0;" parent="1" vertex="1">
          <mxGeometry x="60" y="-1055" width="30" height="60" as="geometry" />
        </mxCell>
        <mxCell id="egj4rplgfE7cPBK7OeJP-2" value="" style="endArrow=none;html=1;rounded=0;exitX=1;exitY=0.3333333333333333;exitDx=0;exitDy=0;exitPerimeter=0;entryX=0;entryY=0.5;entryDx=0;entryDy=0;" parent="1" source="egj4rplgfE7cPBK7OeJP-1" target="egj4rplgfE7cPBK7OeJP-3" edge="1">
          <mxGeometry width="50" height="50" relative="1" as="geometry">
            <mxPoint x="200" y="-965" as="sourcePoint" />
            <mxPoint x="200" y="-1025" as="targetPoint" />
          </mxGeometry>
        </mxCell>
        <mxCell id="egj4rplgfE7cPBK7OeJP-3" value="Login" style="ellipse;whiteSpace=wrap;html=1;" parent="1" vertex="1">
          <mxGeometry x="204" y="-1055" width="90" height="50" as="geometry" />
        </mxCell>
        <mxCell id="egj4rplgfE7cPBK7OeJP-6" value="" style="html=1;verticalAlign=bottom;endArrow=open;dashed=1;endSize=8;curved=0;rounded=0;exitX=1;exitY=0.5;exitDx=0;exitDy=0;entryX=0;entryY=0.5;entryDx=0;entryDy=0;" parent="1" source="egj4rplgfE7cPBK7OeJP-3" target="egj4rplgfE7cPBK7OeJP-8" edge="1">
          <mxGeometry x="0.3317" y="7" relative="1" as="geometry">
            <mxPoint x="293.9999999999998" y="-1024.9999999999998" as="sourcePoint" />
            <mxPoint x="420" y="-985" as="targetPoint" />
            <mxPoint as="offset" />
          </mxGeometry>
        </mxCell>
        <mxCell id="qg8r1Z_tqP5rYIa-_E0E-1" value="&amp;lt;&amp;lt;include&amp;gt;&amp;gt;" style="edgeLabel;html=1;align=center;verticalAlign=middle;resizable=0;points=[];" parent="egj4rplgfE7cPBK7OeJP-6" vertex="1" connectable="0">
          <mxGeometry x="0.1548" y="-3" relative="1" as="geometry">
            <mxPoint as="offset" />
          </mxGeometry>
        </mxCell>
        <mxCell id="egj4rplgfE7cPBK7OeJP-8" value="Authentication and authorization" style="ellipse;whiteSpace=wrap;html=1;" parent="1" vertex="1">
          <mxGeometry x="420" y="-1020" width="120" height="60" as="geometry" />
        </mxCell>
        <mxCell id="egj4rplgfE7cPBK7OeJP-11" value="Student/Teacher/Admin" style="shape=umlActor;verticalLabelPosition=bottom;verticalAlign=top;html=1;outlineConnect=0;" parent="1" vertex="1">
          <mxGeometry x="90" y="-785" width="30" height="60" as="geometry" />
        </mxCell>
        <mxCell id="egj4rplgfE7cPBK7OeJP-12" value="" style="endArrow=none;html=1;rounded=0;exitX=1;exitY=0.3333333333333333;exitDx=0;exitDy=0;exitPerimeter=0;entryX=0;entryY=0.5;entryDx=0;entryDy=0;" parent="1" source="egj4rplgfE7cPBK7OeJP-11" target="egj4rplgfE7cPBK7OeJP-13" edge="1">
          <mxGeometry width="50" height="50" relative="1" as="geometry">
            <mxPoint x="340" y="-755" as="sourcePoint" />
            <mxPoint x="270" y="-765" as="targetPoint" />
          </mxGeometry>
        </mxCell>
        <mxCell id="egj4rplgfE7cPBK7OeJP-13" value="Change the password" style="ellipse;whiteSpace=wrap;html=1;" parent="1" vertex="1">
          <mxGeometry x="210" y="-825" width="90" height="50" as="geometry" />
        </mxCell>
        <mxCell id="egj4rplgfE7cPBK7OeJP-17" value="Detailed&amp;nbsp;infomation" style="ellipse;whiteSpace=wrap;html=1;" parent="1" vertex="1">
          <mxGeometry x="210" y="-725" width="110" height="50" as="geometry" />
        </mxCell>
        <mxCell id="egj4rplgfE7cPBK7OeJP-18" value="" style="endArrow=none;html=1;rounded=0;exitX=1;exitY=0.3333333333333333;exitDx=0;exitDy=0;exitPerimeter=0;entryX=0;entryY=0.5;entryDx=0;entryDy=0;" parent="1" source="egj4rplgfE7cPBK7OeJP-11" target="egj4rplgfE7cPBK7OeJP-17" edge="1">
          <mxGeometry width="50" height="50" relative="1" as="geometry">
            <mxPoint x="130" y="-755" as="sourcePoint" />
            <mxPoint x="290" y="-830" as="targetPoint" />
          </mxGeometry>
        </mxCell>
        <mxCell id="egj4rplgfE7cPBK7OeJP-22" value="Change information" style="shape=umlFrame;whiteSpace=wrap;html=1;pointerEvents=0;width=80;height=40;" parent="1" vertex="1">
          <mxGeometry x="170" y="-880" width="380" height="225" as="geometry" />
        </mxCell>
        <mxCell id="c0MBjDwg75Hm8nNIND0w-2" value="" style="html=1;verticalAlign=bottom;endArrow=block;curved=0;rounded=0;entryX=0.991;entryY=0.362;entryDx=0;entryDy=0;entryPerimeter=0;exitX=0;exitY=0.5;exitDx=0;exitDy=0;" parent="1" source="c0MBjDwg75Hm8nNIND0w-3" target="egj4rplgfE7cPBK7OeJP-3" edge="1">
          <mxGeometry width="80" relative="1" as="geometry">
            <mxPoint x="410" y="-1090" as="sourcePoint" />
            <mxPoint x="400" y="-1080" as="targetPoint" />
          </mxGeometry>
        </mxCell>
        <mxCell id="c0MBjDwg75Hm8nNIND0w-3" value="Login by username and password" style="ellipse;whiteSpace=wrap;html=1;" parent="1" vertex="1">
          <mxGeometry x="420" y="-1100" width="120" height="60" as="geometry" />
        </mxCell>
        <mxCell id="c0MBjDwg75Hm8nNIND0w-4" value="Login" style="shape=umlFrame;whiteSpace=wrap;html=1;pointerEvents=0;width=80;height=40;" parent="1" vertex="1">
          <mxGeometry x="170" y="-1120" width="390" height="190" as="geometry" />
        </mxCell>
        <mxCell id="Tg01N1bAFy_G2IhM6o_2-1" value="Login" style="ellipse;whiteSpace=wrap;html=1;" parent="1" vertex="1">
          <mxGeometry x="430" y="-795" width="90" height="50" as="geometry" />
        </mxCell>
        <mxCell id="Tg01N1bAFy_G2IhM6o_2-2" value="" style="html=1;verticalAlign=bottom;endArrow=open;dashed=1;endSize=8;curved=0;rounded=0;exitX=1;exitY=0.5;exitDx=0;exitDy=0;entryX=0;entryY=0.5;entryDx=0;entryDy=0;" parent="1" source="egj4rplgfE7cPBK7OeJP-13" target="Tg01N1bAFy_G2IhM6o_2-1" edge="1">
          <mxGeometry x="0.3317" y="7" relative="1" as="geometry">
            <mxPoint x="300" y="-845" as="sourcePoint" />
            <mxPoint x="426" y="-805" as="targetPoint" />
            <mxPoint as="offset" />
          </mxGeometry>
        </mxCell>
        <mxCell id="Tg01N1bAFy_G2IhM6o_2-3" value="&amp;lt;&amp;lt;include&amp;gt;&amp;gt;" style="edgeLabel;html=1;align=center;verticalAlign=middle;resizable=0;points=[];" parent="Tg01N1bAFy_G2IhM6o_2-2" vertex="1" connectable="0">
          <mxGeometry x="0.1548" y="-3" relative="1" as="geometry">
            <mxPoint as="offset" />
          </mxGeometry>
        </mxCell>
        <mxCell id="Tg01N1bAFy_G2IhM6o_2-4" value="" style="html=1;verticalAlign=bottom;endArrow=open;dashed=1;endSize=8;curved=0;rounded=0;exitX=1;exitY=0.5;exitDx=0;exitDy=0;entryX=-0.04;entryY=0.603;entryDx=0;entryDy=0;entryPerimeter=0;" parent="1" source="egj4rplgfE7cPBK7OeJP-17" target="Tg01N1bAFy_G2IhM6o_2-1" edge="1">
          <mxGeometry x="0.3317" y="7" relative="1" as="geometry">
            <mxPoint x="311" y="-779" as="sourcePoint" />
            <mxPoint x="440" y="-740" as="targetPoint" />
            <mxPoint as="offset" />
          </mxGeometry>
        </mxCell>
        <mxCell id="Tg01N1bAFy_G2IhM6o_2-5" value="&amp;lt;&amp;lt;include&amp;gt;&amp;gt;" style="edgeLabel;html=1;align=center;verticalAlign=middle;resizable=0;points=[];" parent="Tg01N1bAFy_G2IhM6o_2-4" vertex="1" connectable="0">
          <mxGeometry x="0.1548" y="-3" relative="1" as="geometry">
            <mxPoint as="offset" />
          </mxGeometry>
        </mxCell>
      </root>
    </mxGraphModel>
  </diagram>
</mxfile>
